<svg xmlns="http://www.w3.org/2000/svg" viewBox="0 0 1233.99 636.19"><title>purple-phone</title><path d="M1359,765c-.17.33-.32.94-.5,1-1.33.08-2.67,0-4,0" transform="translate(-125.01 -129.81)" fill="#99f"/><path d="M853.64,557.58c-15.8,0-30.94-5.18-45-15.39a87.74,87.74,0,0,1-27.35-31.8,9.67,9.67,0,0,1-1.3-4.23c0-1.92,1.14-3.42,3.55-5.09,28.34-19.65,57.05-39.77,84.83-59.23l22.13-15.5c1.45-1,2.87-2,4.27-3.07l2.19-1.58.3.22q2.53,1.8,5,3.59c3.67,2.64,7.14,5.13,10.73,7.6,13,8.92,28.31,11.52,45.53,7.73,28.64-6.32,55.74-19.43,80.55-39,22.61-17.83,40-38.53,51.78-61.55a57.69,57.69,0,0,0,6.72-26.41,57,57,0,0,0-6.84-26.5l-.21-.4.37-.26,120-84,.3.41c1.22,1.67,2.46,3.33,3.71,5,2.72,3.63,5.52,7.4,8.11,11.25,10.86,16.16,15.94,30.91,15.94,46.27,0,.52,0,1,0,1.54a80.13,80.13,0,0,1-11.26,39.73l-1.33,2.23c-9.26,15.54-18.83,31.62-30,46.11-12,15.63-25.9,29.85-39.08,43.08-13.78,13.85-28.09,27-42.52,39.11-24,20.14-44.5,34.82-64.55,46.2l-.5.29c-23.25,13.21-47.29,26.86-71.6,39-16.36,8.18-33.42,14.68-52.42,21.73a210.55,210.55,0,0,1-71.33,12.92Z" transform="translate(-125.01 -129.81)" fill="#99f"/><path d="M781,506.19a8.39,8.39,0,0,0,1.18,3.73,86.84,86.84,0,0,0,27,31.44c13.9,10.08,28.84,15.18,44.41,15.18h.72a209.62,209.62,0,0,0,71-12.86c19-7,36-13.53,52.31-21.68,24.28-12.13,48.31-25.78,71.55-39l.5-.28c20-11.36,40.46-26,64.4-46.1,14.4-12.09,28.69-25.22,42.45-39.05,13.15-13.2,27-27.4,39-43,11.13-14.44,20.69-30.49,29.94-46l1.32-2.22a79.17,79.17,0,0,0,11.12-39.23c0-.51,0-1,0-1.52,0-15.15-5-29.72-15.77-45.7-2.57-3.83-5.37-7.58-8.08-11.21-1.15-1.53-2.29-3.07-3.42-4.6L1091.84,287.3a57.82,57.82,0,0,1,6.76,26.58,58.74,58.74,0,0,1-6.84,26.88c-11.82,23.15-29.33,44-52.06,61.89-24.94,19.65-52.18,32.84-81,39.18-17.51,3.86-33.1,1.21-46.34-7.88-3.6-2.47-7.07-5-10.74-7.61-1.56-1.12-3.12-2.25-4.71-3.38l-1.58,1.15c-1.4,1-2.84,2.06-4.28,3.07l-22.14,15.51c-27.77,19.46-56.49,39.58-84.83,59.23C782,503.38,781,504.59,781,506.19Z" transform="translate(-125.01 -129.81)" fill="#99f"/><path d="M895.26,391.63a435.41,435.41,0,0,0-24.56-36.46c-7-9.07-15.74-10.3-25.41-3.56-2.33,1.63-4.68,3.25-7,4.87-3.79,2.63-7.58,5.25-11.35,7.91l-11.42,8c-27,19-54.81,38.57-82.13,58-2.23,1.59-3.93,4.17-5.42,6.72a13.13,13.13,0,0,0-1.94,6.78c0,3.86,1.74,7.75,4.37,12q-7.17,4.9-14.26,9.86c-10.8,7.51-22,15.27-33.19,22.47-20.45,13.13-37.15,21.05-54.14,25.68-25.93,7.06-45.06-1-56.88-24a8.56,8.56,0,0,1-1.16-3.75c0-1.5.76-2.77,2.38-4.34a130,130,0,0,0,33.5-54,29.42,29.42,0,0,0,1.59-9,16.51,16.51,0,0,0-5.1-12.23c-6.11-6.1-14-8.13-22.89-5.88-11.68,3-18.83,11.35-22.5,26.42A87.29,87.29,0,0,0,555.24,448a102.51,102.51,0,0,0,5.12,31.31,8.73,8.73,0,0,1,.48,2.56c0,1.5-.7,2.6-2.24,3.82-31.75,25.07-65.11,34.84-102,29.9-15.16-2-24.37-7.47-29.87-17.63-2.18-4-3.35-6.33-3.35-8.34,0-2.43,1.71-4.41,5.43-8.37A2.75,2.75,0,0,0,429,481l.12-.15c18.19-21.19,28-46.5,29.2-75.23.06-1.46.09-2.87.09-4.24a64.22,64.22,0,0,0-1.33-13.82c-1.37-6.17-5.39-10.88-10.76-12.6s-11-.3-15.59,3.84a37.56,37.56,0,0,0-10,15.46,175.79,175.79,0,0,0-8.92,55.46,185.47,185.47,0,0,0,1.74,25.21l0,.18a49.58,49.58,0,0,1,.61,5.84c0,3.71-1.8,4.2-8.33,6a21.22,21.22,0,0,1-4.92.9c-33.13,1-60-2-84.49-9.44A103.1,103.1,0,0,1,283,461.54l.73-.63a26.09,26.09,0,0,0,2.07-1.9c2.33-2.47,4.79-4.92,7.16-7.28,5.42-5.42,11-11,15.6-17.23,13.73-18.68,20.68-39.49,20.67-61.87,0-.51,0-1,0-1.54-.18-12.89-4.68-22.69-12.65-27.61s-19.09-4.57-31,1.18c-17.42,8.45-30.53,24.52-36,44.11A72.4,72.4,0,0,0,247,408.13a66.73,66.73,0,0,0,10.62,36.5,122,122,0,0,0,8.78,11.43c1.3,1.57,2.64,3.19,3.95,4.83-19.35,12.5-39.28,13-59.27,1.57-47.32-27.13-73.86-69.35-78.88-125.47-.21-2.36-.28-4.76-.28-7.15,0-2.72.09-5.44.19-8.11s.18-5.44.19-8.17c0-.42,0-.84,0-1.25a5.69,5.69,0,0,0-1.33-3c-.28-.42-.55-.81-.76-1.2l-.31-.58-.49.45c-.37.34-.77.66-1.18,1a7.57,7.57,0,0,0-2.47,2.64A11.11,11.11,0,0,0,125,316c0,.49,0,1,0,1.43.17,3.62.25,7.31.32,10.89.18,8.47.36,17.23,1.84,25.64,8.52,48.2,33.49,85.69,74.24,111.44,24.72,15.62,49.12,16.28,72.53,2a5.93,5.93,0,0,1,5.1.33c13.06,9.31,26.72,15.67,40.6,18.91,30.37,7.09,63.16,12.62,97.12,5.25,3.87,15.84,15.17,25.82,33.58,29.65a110.26,110.26,0,0,0,20,2.29l3.13,0c30.8,0,59.68-10,85.89-29.8,1.15-.87,2.33-1.72,3.55-2.6l1.32-.95.47.86c.4.73.72,1.31,1,1.89C576.2,513.34,590.73,523,611,523a76.33,76.33,0,0,0,11.82-1c16.64-2.63,33.46-9.4,52.93-21.33,14-8.59,27.91-17.89,41.35-26.89,5.69-3.8,11.56-7.73,17.38-11.57,1.58,2.22,3.18,4.5,4.81,6.82,4.06,5.79,8.25,11.78,12.76,17.56,6.91,8.85,13.93,10.86,22.76,6.51a80,80,0,0,0,10.37-6.42c20.08-14.07,40.46-28.43,60.18-42.32l6.28-4.43q5.33-3.75,10.67-7.48C871.77,425.83,881.55,419,891,412c4.61-3.39,6.94-7.45,7-11.87A16.32,16.32,0,0,0,895.26,391.63ZM278,455.45c-1.15.37-1.76.1-2-.48-4.94-1.66-8-5.43-10.36-9.76a26.81,26.81,0,0,1-4.25-6.29,7.53,7.53,0,0,1-2.06-5.43,28.63,28.63,0,0,1-3.5-15.73,1.4,1.4,0,0,1-.63-1.36c0-12.1-.91-25.08,4.57-36.25a47.27,47.27,0,0,1,3.69-6.23,60.06,60.06,0,0,1,14.49-17.19c7.58-6.19,17.65-11.89,27.79-9.53l1,.26c5.32-.1,8.59,2,10.63,5.56a19.62,19.62,0,0,1,6.48,14,61.58,61.58,0,0,1-2.09,18.43c-.13.52-.3,1-.47,1.54a12,12,0,0,1-2.37,7.19c-.36,1.47-.6,2.9-.94,4.31a25.3,25.3,0,0,1-.84,4.14c-.42,8.73-13.66,26.6-15.33,29.47a4.07,4.07,0,0,1-1.68,1.6c-.75,3.56-5.37,7.41-7.17,9.54C288.78,448.14,284.33,453.42,278,455.45Zm142.66,21.91c-1.15-.49-1.17-1.64-.84-2.67a1.89,1.89,0,0,1-.42-.95,13.52,13.52,0,0,1,0-4.26c0-.21-.05-.41-.08-.63l-.15-1.2a2.08,2.08,0,0,1,0-.25,135.53,135.53,0,0,1-.5-19.57,2.05,2.05,0,0,1-.15-.81c0-5,.44-10,.73-15,0-.79.09-1.6.17-2.41a46.31,46.31,0,0,1,.88-7.34,28,28,0,0,1,1.31-7.82c1.54-5.3,3.62-10.36,5-15.72a30.59,30.59,0,0,1,3-7.63c1.47-4.06,3.82-8,7.82-9.93s9.2-.75,11.38,3.3A13.73,13.73,0,0,1,450,388a13.12,13.12,0,0,1,.33,1.51c3.27,3.93,2.33,10.15,2.08,14.91a117.26,117.26,0,0,1-4.11,25.79,103.32,103.32,0,0,1-13.51,28.9,14.21,14.21,0,0,1-3.92,5.69,2.44,2.44,0,0,1,.11,2.35,14.56,14.56,0,0,1-3.24,4.78,18.33,18.33,0,0,0-3,3.38C424.06,476.46,422.1,478,420.64,477.36Zm146.68,2.55c-.44-.17-.72-.6-.69-1.4.37-9.53-3.13-18.56-3.64-28-.43-7.86,0-16.08,2.2-23.66,2.07-7.08,5.46-13.82,12.14-17.52,5.33-3,12.15-3.65,17.74-.91,10.87,5.32,5.17,20.32,1.65,28.55-6.51,15.2-13.48,30.23-25.52,41.91C570.14,479.89,568.29,480.58,567.32,479.91Z" transform="translate(-125.01 -129.81)" fill="#99f"/><path d="M894.38,392.17a434.9,434.9,0,0,0-24.5-36.37c-6.56-8.56-14.85-9.71-24-3.34-2.33,1.63-4.68,3.25-7,4.87-3.79,2.63-7.58,5.25-11.34,7.9l-11.43,8c-26.94,19-54.81,38.56-82.13,58-2.07,1.47-3.68,3.95-5.12,6.4a12.22,12.22,0,0,0-1.81,6.3c0,3.73,1.77,7.51,4.48,11.85l.26.42-.4.28q-7.38,5.06-14.66,10.14c-10.81,7.51-22,15.28-33.22,22.49-20.55,13.19-37.33,21.14-54.43,25.8a66.18,66.18,0,0,1-17.41,2.53c-17.77,0-31.4-9-40.65-27a9.58,9.58,0,0,1-1.28-4.23c0-1.77.87-3.31,2.69-5.07a129,129,0,0,0,33.24-53.58,28.42,28.42,0,0,0,1.53-8.64,15.57,15.57,0,0,0-4.79-11.51c-5.84-5.83-13.42-7.76-21.91-5.61-11.26,2.85-18.18,11-21.75,25.66A86.44,86.44,0,0,0,556.28,448a101.56,101.56,0,0,0,5.06,31,9.83,9.83,0,0,1,.55,2.89c0,1.64-.71,3.09-2.65,4.62-32,25.25-65.59,35.1-102.78,30.11-15.52-2.08-25-7.68-30.64-18.16-2.27-4.19-3.49-6.7-3.49-8.89,0-2.66,1.8-4.84,5.73-9l.16-.2.15-.19c18-21,27.77-46.1,28.95-74.59.06-1.44.09-2.84.09-4.18a62.78,62.78,0,0,0-1.31-13.61C454.81,382,451.05,377.56,446,376s-10.26-.26-14.58,3.62a36.51,36.51,0,0,0-9.74,15,174.63,174.63,0,0,0-8.87,55.14,184.87,184.87,0,0,0,1.73,25.06l0,.18a48.81,48.81,0,0,1,.61,6c0,4.27-2,5-9.07,6.92a22.44,22.44,0,0,1-5.17.93c-33.24,1.05-60.19-2-84.82-9.48A103.61,103.61,0,0,1,281.89,462l-.49-.38.46-.41,1.22-1.06a24.38,24.38,0,0,0,2-1.82c2.34-2.48,4.8-4.93,7.18-7.31,5.4-5.38,11-10.95,15.5-17.1,13.59-18.5,20.48-39.1,20.47-61.26,0-.51,0-1,0-1.53-.18-12.52-4.5-22-12.16-26.74s-18.43-4.36-30,1.23C268.93,353.91,256,369.75,250.65,389A71.24,71.24,0,0,0,248,408.12a65.72,65.72,0,0,0,10.45,35.95,120.92,120.92,0,0,0,8.71,11.33c1.42,1.72,2.9,3.49,4.32,5.29l.35.44-.47.31c-19.85,13-40.31,13.67-60.82,1.91-47.63-27.31-74.34-69.79-79.4-126.26-.21-2.4-.28-4.82-.28-7.23,0-2.74.09-5.48.18-8.17s.19-5.41.19-8.13v-1.24a5.08,5.08,0,0,0-1.15-2.4l-.49-.73-.76.61a6.72,6.72,0,0,0-2.16,2.25,10.14,10.14,0,0,0-.65,4c0,.47,0,.94,0,1.38.18,3.63.25,7.34.33,10.92.17,8.43.35,17.15,1.82,25.48C136.69,401.7,161.51,439,202,464.54c24.36,15.4,48.4,16.06,71.44,2a6.84,6.84,0,0,1,6.24.37c12.95,9.23,26.49,15.54,40.23,18.75,30.41,7.09,63.22,12.63,97.16,5.14l.5-.11.12.49c3.65,15.71,14.73,25.59,32.9,29.37a108.27,108.27,0,0,0,19.85,2.26c31.73.68,61.47-9.25,88.37-29.55,1.17-.88,2.35-1.73,3.57-2.62l2.27-1.64,1,1.89c.41.74.73,1.33,1,1.92,12.09,23.34,29.86,32.31,55.94,28.19,16.5-2.59,33.2-9.33,52.55-21.18,14-8.58,27.88-17.87,41.32-26.86,5.82-3.9,11.84-7.93,17.8-11.85l.42-.27.28.4c1.68,2.34,3.38,4.76,5.1,7.23,4,5.78,8.24,11.76,12.74,17.52,6.55,8.39,13.18,10.31,21.49,6.21a78.63,78.63,0,0,0,10.22-6.33c20.09-14.08,40.47-28.44,60.18-42.33l6.28-4.42q5.33-3.76,10.68-7.49c9.45-6.61,19.23-13.45,28.67-20.41,4.31-3.17,6.49-7,6.49-11.1A15.18,15.18,0,0,0,894.38,392.17ZM278,455.45c-1.15.37-1.76.1-2-.48-4.94-1.66-8-5.43-10.36-9.76a26.81,26.81,0,0,1-4.25-6.29,7.53,7.53,0,0,1-2.06-5.43,28.63,28.63,0,0,1-3.5-15.73,1.4,1.4,0,0,1-.63-1.36c0-12.1-.91-25.08,4.57-36.25a47.27,47.27,0,0,1,3.69-6.23,60.06,60.06,0,0,1,14.49-17.19c7.58-6.19,17.65-11.89,27.79-9.53l1,.26c5.32-.1,8.59,2,10.63,5.56a19.62,19.62,0,0,1,6.48,14,61.58,61.58,0,0,1-2.09,18.43c-.13.52-.3,1-.47,1.54a12,12,0,0,1-2.37,7.19c-.36,1.47-.6,2.9-.94,4.31a25.3,25.3,0,0,1-.84,4.14c-.42,8.73-13.66,26.6-15.33,29.47a4.07,4.07,0,0,1-1.68,1.6c-.75,3.56-5.37,7.41-7.17,9.54C288.78,448.14,284.33,453.42,278,455.45Zm142.66,21.91c-1.15-.49-1.17-1.64-.84-2.67a1.89,1.89,0,0,1-.42-.95,13.52,13.52,0,0,1,0-4.26c0-.21-.05-.41-.08-.63l-.15-1.2a2.08,2.08,0,0,1,0-.25,135.53,135.53,0,0,1-.5-19.57,2.05,2.05,0,0,1-.15-.81c0-5,.44-10,.73-15,0-.79.09-1.6.17-2.41a46.31,46.31,0,0,1,.88-7.34,28,28,0,0,1,1.31-7.82c1.54-5.3,3.62-10.36,5-15.72a30.59,30.59,0,0,1,3-7.63c1.47-4.06,3.82-8,7.82-9.93s9.2-.75,11.38,3.3A13.73,13.73,0,0,1,450,388a13.12,13.12,0,0,1,.33,1.51c3.27,3.93,2.33,10.15,2.08,14.91a117.26,117.26,0,0,1-4.11,25.79,103.32,103.32,0,0,1-13.51,28.9,14.21,14.21,0,0,1-3.92,5.69,2.44,2.44,0,0,1,.11,2.35,14.56,14.56,0,0,1-3.24,4.78,18.33,18.33,0,0,0-3,3.38C424.06,476.46,422.1,478,420.64,477.36Zm146.68,2.55c-.44-.17-.72-.6-.69-1.4.37-9.53-3.13-18.56-3.64-28-.43-7.86,0-16.08,2.2-23.66,2.07-7.08,5.46-13.82,12.14-17.52,5.33-3,12.15-3.65,17.74-.91,10.87,5.32,5.17,20.32,1.65,28.55-6.51,15.2-13.48,30.23-25.52,41.91C570.14,479.89,568.29,480.58,567.32,479.91Z" transform="translate(-125.01 -129.81)" fill="#99f"/><path d="M600.16,412.19a14.67,14.67,0,0,0-10.23-5.91c-7.93-1.19-14.33,1.12-18.49,6.67a44.06,44.06,0,0,0-7.54,14.6,76.41,76.41,0,0,0-2.6,19.94c0,9.73,1.69,20.13,5.12,31.68l.24.84.33-.33a1.47,1.47,0,0,1-.36-1.17c.37-9.53-3.13-18.56-3.64-28-.43-7.86,0-16.08,2.2-23.66,2.07-7.08,5.46-13.82,12.14-17.52,5.33-3,12.15-3.65,17.74-.91,10.87,5.32,5.17,20.32,1.65,28.55-1.19,2.78-2.39,5.54-3.64,8.28a100.11,100.11,0,0,0,8.68-23.48,14,14,0,0,0,.37-3.1A11.42,11.42,0,0,0,600.16,412.19Z" transform="translate(-125.01 -129.81)" fill="#99f"/><path d="M577.33,409.31a20.66,20.66,0,0,1,4.83-1.93,15.71,15.71,0,0,0-8.26,4.32A19.6,19.6,0,0,1,577.33,409.31Z" transform="translate(-125.01 -129.81)" fill="#99f"/><path d="M563,450.49c-.43-7.81,0-16,2.16-23.53-.08.29-.18.57-.25.85a75.13,75.13,0,0,0-2.56,19.71,107.06,107.06,0,0,0,4.3,28.63C566.43,467.48,563.46,459.16,563,450.49Z" transform="translate(-125.01 -129.81)" fill="#99f"/><path d="M448.75,384.43A13.73,13.73,0,0,1,450,388a13.12,13.12,0,0,1,.33,1.51,8.36,8.36,0,0,1,1,1.47c-.12-.88-.23-1.75-.38-2.63-.63-3.75-2.76-6.54-5.85-7.66a8.41,8.41,0,0,0-3.76-.45A8.22,8.22,0,0,1,448.75,384.43Z" transform="translate(-125.01 -129.81)" fill="#99f"/><path d="M448.32,430.2a103.32,103.32,0,0,1-13.51,28.9,14.21,14.21,0,0,1-3.92,5.69,2.44,2.44,0,0,1,.11,2.35,14.56,14.56,0,0,1-3.24,4.78,18.33,18.33,0,0,0-3,3.38c-.67,1.16-2.63,2.69-4.09,2.06-1.15-.49-1.17-1.64-.84-2.67a1.89,1.89,0,0,1-.42-.95,13.52,13.52,0,0,1,0-4.26c0-.21-.05-.41-.08-.63l-.15-1.2a2.08,2.08,0,0,1,0-.25,135.53,135.53,0,0,1-.5-19.57,2.05,2.05,0,0,1-.15-.81c0-5,.44-10,.73-15,0-.79.09-1.6.17-2.41a46.31,46.31,0,0,1,.88-7.34,28,28,0,0,1,1.31-7.82c1.54-5.3,3.62-10.36,5-15.72a30.59,30.59,0,0,1,3-7.63,27.34,27.34,0,0,1,1.34-3.1,33,33,0,0,0-4.27,7.94,140.12,140.12,0,0,0-8.51,46.59c0,.84,0,1.69,0,2.53,0,7.47.33,15,.65,22.35.17,3.68.33,7.37.45,11.06l0,.44,2.51.31.18-.16.8-.72c.61-.54,1.24-1.09,1.81-1.7l.81-.87a50.78,50.78,0,0,0,3.67-4.18,114.94,114.94,0,0,0,22.92-58c.24-2.39.36-4.87.4-7.38A116.65,116.65,0,0,1,448.32,430.2Z" transform="translate(-125.01 -129.81)" fill="#99f"/><path d="M430.88,464.8a2.29,2.29,0,0,1,.21,2.05A115.22,115.22,0,0,0,444.55,441a110.1,110.1,0,0,1-9.74,18.12A14.23,14.23,0,0,1,430.88,464.8Z" transform="translate(-125.01 -129.81)" fill="#99f"/><path d="M265.62,445.21a26.81,26.81,0,0,1-4.25-6.29l-.32-.4a65.55,65.55,0,0,0,6.34,9.54Q266.45,446.69,265.62,445.21Z" transform="translate(-125.01 -129.81)" fill="#99f"/><path d="M305.72,347.2l1,.26c5.32-.1,8.59,2,10.63,5.56a20.35,20.35,0,0,1,2.8,3.14,18.52,18.52,0,0,0-6.71-7.58C308,345.21,300.86,345,293,348A23.47,23.47,0,0,1,305.72,347.2Z" transform="translate(-125.01 -129.81)" fill="#99f"/><path d="M321.75,385.43c-.13.52-.3,1-.47,1.54a12,12,0,0,1-2.37,7.19c-.36,1.47-.6,2.9-.94,4.31a25.3,25.3,0,0,1-.84,4.14c-.42,8.73-13.66,26.6-15.33,29.47a4.07,4.07,0,0,1-1.68,1.6c-.75,3.56-5.37,7.41-7.17,9.54-4.17,4.92-8.62,10.2-15,12.23-1.15.37-1.76.1-2-.48a15.19,15.19,0,0,1-5.5-3.3,69.43,69.43,0,0,0,6.24,6l.3.25.33-.22a100.35,100.35,0,0,0,27.54-28.08c10.64-16.23,16.56-32.42,18-49.21C322.56,382.1,322.19,383.79,321.75,385.43Z" transform="translate(-125.01 -129.81)" fill="#99f"/><path d="M255.81,417.76a1.4,1.4,0,0,1-.63-1.36c0-12.1-.91-25.08,4.57-36.25a47.27,47.27,0,0,1,3.69-6.23,60.06,60.06,0,0,1,14.49-17.19c.8-.66,1.64-1.31,2.5-1.94a63.56,63.56,0,0,0-26.78,43.94,65.57,65.57,0,0,0-.58,8.71,64.88,64.88,0,0,0,6.44,28.08,7.45,7.45,0,0,1-.2-2A28.63,28.63,0,0,1,255.81,417.76Z" transform="translate(-125.01 -129.81)" fill="#99f"/><path d="M255.81,417.76a1.4,1.4,0,0,1-.63-1.36c0-8.48-.45-17.39,1.18-25.81a63.73,63.73,0,0,0-2.25,16.85,63.57,63.57,0,0,0,1.79,14.91A30.62,30.62,0,0,1,255.81,417.76Z" transform="translate(-125.01 -129.81)" fill="#99f"/><path d="M305.72,347.2l1,.26c.54,0,1.06,0,1.56,0a18.53,18.53,0,0,0-3.93-.55C304.81,347,305.26,347.09,305.72,347.2Z" transform="translate(-125.01 -129.81)" fill="#99f"/><path d="M318,398.48a25.52,25.52,0,0,1-.84,4.14s0,0,0,.05A93.66,93.66,0,0,0,320,392.55a9.55,9.55,0,0,1-1,1.56C318.55,395.6,318.31,397.05,318,398.48Z" transform="translate(-125.01 -129.81)" fill="#99f"/><path d="M301.8,432.08a4,4,0,0,1-1.69,1.6,7.53,7.53,0,0,1-.56,1.61c1.56-2,3.06-4.1,4.48-6.25,1.17-1.79,2.27-3.59,3.33-5.38C304.73,427.74,302.43,431,301.8,432.08Z" transform="translate(-125.01 -129.81)" fill="#99f"/><path d="M278,455.45c-1.15.37-1.76.1-2-.48a13,13,0,0,1-1.32-.53c.79.74,1.6,1.47,2.43,2.18.81-.56,1.59-1.15,2.38-1.72C279,455.1,278.49,455.29,278,455.45Z" transform="translate(-125.01 -129.81)" fill="#99f"/><path d="M1077.2,279.51l-.71-1.41c-6.31-.07-10.13-4.18-12.77-7.79-8.57-11.71-15-20.77-20.9-29.36-4-5.84-6-10.69-6-15.07,0-6,3.83-11.1,11.74-16.62,10.17-7.11,20.56-14.27,30.61-21.19,9.23-6.37,18.77-12.94,28.13-19.46,6.6-4.61,13.28-9.35,19.73-13.94,8.8-6.25,17.89-12.72,27-18.92,14.49-9.94,20.59-6.76,29.59,4.67,6.39,8.11,12.25,16.83,17.92,25.27l1.72,2.56c3.42,5.08,5.16,9.55,5.16,13.67,0,6.11-3.82,11.45-11.66,16.85l-13.92,9.59c-11.19,7.7-22.76,15.66-34.09,23.58-7.87,5.51-15.85,11.16-23.57,16.62-10.91,7.73-22.21,15.73-33.4,23.46a63.49,63.49,0,0,1-9.55,5.11c-1.48.69-3,1.4-4.47,2.14Z" transform="translate(-125.01 -129.81)" fill="#99f"/><path d="M1077.13,277.06l.53,1.06c1.33-.67,2.71-1.31,4-1.92a64.09,64.09,0,0,0,9.39-5c11.19-7.73,22.48-15.72,33.4-23.45,7.71-5.46,15.69-11.11,23.57-16.62,11.33-7.92,22.9-15.89,34.09-23.59q7-4.78,13.92-9.59c7.56-5.21,11.23-10.21,11.24-16,0-3.92-1.69-8.19-5-13.12l-1.72-2.55c-5.66-8.43-11.51-17.14-17.87-25.21-9-11.4-14.58-13.79-28.2-4.46-9,6.2-18.14,12.66-26.93,18.91-6.46,4.59-13.13,9.34-19.74,13.94-9.36,6.53-18.9,13.1-28.14,19.47-10,6.92-20.43,14.08-30.6,21.18-7.62,5.32-11.3,10.12-11.3,15.78,0,4.17,2,8.81,5.88,14.49,5.87,8.58,12.31,17.63,20.88,29.34,3.76,5.14,7.51,7.41,12.24,7.35Z" transform="translate(-125.01 -129.81)" fill="#99f"/></svg>