<svg xmlns="http://www.w3.org/2000/svg" viewBox="0 0 1188 378"><title>squig</title><path d="M1243.64,422c-9.41,5.92-18.82,11.84-28.24,17.58-21.05,13.26-42.89,27.05-64.73,39.78-40,23.33-72.74,37.3-106.08,45.6a137.09,137.09,0,0,1-33.93,4.42q-52.06,0-79.36-47.73a14.76,14.76,0,0,1-2.53-7.42c0-3.18,1.75-5.83,5.26-9,29.83-26.16,52.26-58.68,64.74-94.75a41.3,41.3,0,0,0,2.92-15.2,26.4,26.4,0,0,0-9.36-20.33c-11.31-10.25-26.13-13.78-42.7-9.9-22,5.13-35.49,19.45-42.51,45.43a142.64,142.64,0,0,0-4.87,36.24,165.33,165.33,0,0,0,9.94,54.8,14.94,14.94,0,0,1,1,5.13c0,2.83-1.37,5.48-5.27,8.13C845.5,519.32,780,536.82,707.45,528c-30.22-3.71-48.75-13.61-59.67-32.17C643.3,488.38,641,484,641,480.07c0-4.77,3.51-8.48,11.11-15.91l.39-.35.2-.35c35.1-37.13,54.2-81.49,56.54-131.87.2-2.48.2-4.95.2-7.43a99.85,99.85,0,0,0-2.54-24,28.45,28.45,0,0,0-19.69-20.86c-9.75-2.83-20.08-.53-28.47,6.36a64,64,0,0,0-18.91,26.52,283.23,283.23,0,0,0-17.36,97.4,306.28,306.28,0,0,0,3.32,44.37v.35a100.92,100.92,0,0,1,1.17,10.61c0,7.6-3.9,8.84-17.75,12.2A48.73,48.73,0,0,1,599,478.66c-64.73,1.77-117.38-3.54-165.35-16.79A208.54,208.54,0,0,1,367,431.11l-1-.71,1-.71,2.34-1.94c1.37-1.06,2.73-2.12,3.9-3.18,4.49-4.42,9.36-8.66,14-12.91,10.53-9.54,21.45-19.44,30.23-30.23,26.52-32.7,40-69.11,40-108.36v-2.65c-.39-22.09-8.77-38.89-23.79-47.2s-35.88-7.77-58.5,2.13c-33.34,14.67-58.69,42.6-69,76.71a117.12,117.12,0,0,0-5.07,33.77c-.2,22.45,7,44.54,20.47,63.64a244.21,244.21,0,0,0,17,20c2.73,3,5.66,6.19,8.39,9.37l.78.71-1,.53c-38.6,23-78.58,24.21-118.55,3.36C135.34,385.15,83.28,310,73.33,210.14q-.58-6.36-.58-12.73c0-4.77.19-9.72.39-14.49s.39-9.55.39-14.32v-2.12a11.06,11.06,0,0,0-2.15-4.24l-1-1.24L69,162c-.11.24-.22.49-.35.72a22.72,22.72,0,0,1-5.09,6A18.58,18.58,0,0,0,63,173.2v2.47c.39,6.37.39,12.91.58,19.27.39,14.85.59,30.23,3.51,45.08C83.67,324.69,132,390.63,211,435.7c47.58,27.23,94.38,28.46,139.22,3.54a13.86,13.86,0,0,1,12.09.71c25.35,16.26,51.68,27.4,78.39,33.23,59.28,12.55,123.24,22.27,189.53,9l1-.17.19.88c7,27.76,28.67,45.26,64.15,52a235.5,235.5,0,0,0,38.81,4.07c61.81,1.24,119.92-16.26,172.37-52.15,2.34-1.59,4.49-3,7-4.6l4.49-2.82,2,3.36c.78,1.23,1.36,2.29,1.95,3.35,23.59,41.19,58.3,57.1,109,49.85,32.17-4.59,64.73-16.44,102.37-37.47,27.3-15.2,54.4-31.64,80.53-47.55,9.88-6,20-12.18,30.26-18.35a40.56,40.56,0,0,1,6.7-4.44Q1247.26,425.11,1243.64,422Zm-884.06-2.39c-2.14.7-3.51.17-3.9-.89-9.55-3-15.6-9.54-20.28-17.32a47.28,47.28,0,0,1-8.19-11.14,13.11,13.11,0,0,1-4.09-9.54A47.09,47.09,0,0,1,316.29,353a2.17,2.17,0,0,1-1.16-2.47c0-21.39-1.76-44.37,9-64a74.14,74.14,0,0,1,7.22-11,109.26,109.26,0,0,1,28.27-30.41c14.82-11,34.32-21,54.21-16.79l1.95.53c10.34-.18,16.77,3.54,20.67,9.9a33.52,33.52,0,0,1,12.67,24.75A102.18,102.18,0,0,1,445,296.05a15.05,15.05,0,0,1-1,2.66,19.59,19.59,0,0,1-4.67,12.72c-.78,2.65-1.17,5.13-1.76,7.6a43.81,43.81,0,0,1-1.56,7.25c-.78,15.38-26.71,47-29.83,52.15a8.21,8.21,0,0,1-3.32,2.83c-1.56,6.36-10.53,13.08-14,16.79C380.64,406.71,371.87,416.08,359.58,419.62Zm278.06,38.89c-2.14-.89-2.34-2.83-1.56-4.78a3,3,0,0,1-.78-1.76,24.82,24.82,0,0,1,0-7.6,2.08,2.08,0,0,0-.19-1.06l-.2-2.13v-.35a227.34,227.34,0,0,1-1-34.65,1.82,1.82,0,0,1-.2-1.41c0-8.84.78-17.68,1.37-26.52a30.38,30.38,0,0,1,.39-4.24,71,71,0,0,1,1.75-12.9,47,47,0,0,1,2.54-13.79c2.92-9.37,7-18.39,9.75-27.76a55.54,55.54,0,0,1,5.85-13.43c2.92-7.25,7.41-14.14,15.21-17.5s17.94-1.41,22.23,5.83a18.63,18.63,0,0,1,2.34,6.19c.19.88.39,1.77.58,2.65,6.43,6.9,4.48,17.86,4.09,26.34a191.5,191.5,0,0,1-8,45.61,174.89,174.89,0,0,1-26.32,51.08,26.4,26.4,0,0,1-7.61,10.08,4.13,4.13,0,0,1,.2,4.24,31,31,0,0,1-6.24,8.49,35.85,35.85,0,0,0-5.85,6C644.27,456.74,640.57,459.57,637.64,458.51Zm286.06,4.42a2.42,2.42,0,0,1-1.37-2.48c.78-16.79-6-32.88-7-49.49-.78-14,0-28.46,4.29-41.9,4.1-12.55,10.73-24.39,23.6-30.93,10.33-5.31,23.78-6.37,34.51-1.6,21.25,9.37,10.14,35.89,3.31,50.38C968.35,413.78,954.7,440.3,931.3,461,929.16,462.93,925.65,464.16,923.7,462.93Z" transform="translate(-63 -161)" fill="#33f"/></svg>