<svg xmlns="http://www.w3.org/2000/svg" viewBox="0 0 1154.74 118.61"><title>wide-squig</title><path d="M92.58,241.77c16.25,7.34,33.23,14.89,51,22.19a378.71,378.71,0,0,0,94.08,25.5c52.6,7.38,96.49,2.08,136-16,1-.46,1.94-.91,3.18-1.44l3.16-1.43,3.84,1.65c2.18.93,4,1.75,6,2.66,45.26,21.14,103.75,34.21,172,38.21,14.43.79,29,1.14,43.47.83,40.15-.76,66.69-7.92,78.62-21l.34-.41,1,.16c69.13,11.26,138.57,11.15,202.45,9.34a448.5,448.5,0,0,0,83-10.25,30.85,30.85,0,0,1,12.61.52c47.84,15.11,97.31,17.87,145.06,8.19,76.24-15.41,115.3-41.14,118.79-74.6.59-5.58-1.43-11.45-3.17-17-.71-2.36-1.62-4.79-2.14-7.11l-.34-.91a5.08,5.08,0,0,0-1.08-1.65,30.55,30.55,0,0,1-5.45-2.5l-.42-.28-1.44-.46-.73.39a2.51,2.51,0,0,0-1.38,1.41l.28.77c.63,1.74,1.45,3.51,2.27,5.28s1.67,3.63,2.32,5.42a23.94,23.94,0,0,1,1.21,4.76c4.78,39.19-36.58,68.38-126.81,84.2-40.32,7.1-82.46,3.65-123.47-9.94l-1-.31.8-.28c2.77-1.28,5.74-2.55,8.5-3.74,6.08-2.5,11.71-5.17,16.9-7.93,13-7.6,19.43-16.78,18.36-26.39-.44-4.75-2.59-9.64-6.21-14.35-11-14.33-35.66-26.77-67-34.43-21-5.11-40.35-6.6-54.5-4.46s-22.73,8-23.95,16.47l-.1,1c-1.57,15.64,10.27,31.63,35.89,47.51,8.67,5.36,19.66,10.54,30.36,15.59,4.79,2.26,9.81,4.54,14.45,6.89,1.21.57,2.63,1.16,4,1.74l2.44,1.07,1,.4-1,.26c-20.74,5.13-44.6,8.46-70.25,9.77-51.45,2.93-107.89,1.69-176.58-3.85a105.29,105.29,0,0,1-10.56-1.49c-14.21-2.6-18.16-3.47-17-7.08a28.82,28.82,0,0,1,2.79-4.89l0-.16a79.27,79.27,0,0,0,9.7-20c4.44-14.42,2.93-28.65-4.21-42.21-2.26-4.25-7.43-8.3-14.68-11.68-7.06-3.21-16.59-4.76-26.32-4.3s-18.08,3-22.18,6.83a26.45,26.45,0,0,0-6.45,9.39,18.68,18.68,0,0,0-1.07,3c-6.45,21.14,5.17,41.91,35.46,61.46l.15.18.35.19c6.84,4.05,10,6.07,9.21,8.35-.62,1.87-3.83,3.83-9.85,7.11-15,8.34-36.9,11.92-70.63,11.54-81.45-.95-148.07-14.54-201.27-40.38-3.27-1.51-3.87-2.83-3-4.13a8.79,8.79,0,0,1,2.64-2.29c12.18-7.56,21.19-15.58,26.84-23.65a30.16,30.16,0,0,0,5.45-15.66c.32-11.1-8.89-17.72-28.93-21.2a113.41,113.41,0,0,0-44.71,1.09c-7.61,1.71-13.45,4.45-15.73,7.52a8.22,8.22,0,0,0-2.09,6.4c.55,16,12.62,31.72,35.05,45.65,2.65,1.71,3.63,3.06,2.58,4.53a13.16,13.16,0,0,1-5.14,3.27c-30.36,13.81-65,19.62-102.76,17a268.42,268.42,0,0,1-35.07-4.67,450.66,450.66,0,0,1-93.43-29.2c-13.44-5.77-26.4-11.76-38.88-17.6A15.93,15.93,0,0,1,92.58,241.77ZM973.4,282.56c-12.68-2.47-21.7-7.35-30-11.81-3.55-1.9-12.58-5.5-14.07-8.42a10.47,10.47,0,0,1-3.31-1.46c-3-2.45-28.16-17.73-28.46-24.19a10,10,0,0,1-1.3-3.09,32.16,32.16,0,0,0-1.48-3.22c-2.91-1.71-4.28-3.6-4.12-5.45a4.8,4.8,0,0,1-.86-1.12c-2.64-4.43-3.56-8.83-2.8-13.07.7-3.66,5.22-6.75,12.74-8.66,3.83-2.16,9.93-3.15,19.58-2.43l1.83-.08c18.61-.34,36.8,4.68,50.77,9.79,11,4,20.19,8.6,27.3,13.65a56.24,56.24,0,0,1,7.19,4.83c10.93,8.65,9.94,18,10.62,27.11.23.47-.13.82-1.09,1,1.09,4.18-1.15,8.25-6,11.64.1,1.56-1.18,3-3.88,4A30.43,30.43,0,0,1,998,276c-4.63,3.2-10.72,5.77-20.53,6.48C977,282.89,975.63,283,973.4,282.56Zm-300.61-3.77a28.07,28.07,0,0,0-5.17-3.2,16.37,16.37,0,0,1-5.14-4.35c-.58-.7-.12-1.41.89-1.92-3-1.52-5.26-3.24-6.24-5.1-9.41-7.84-15.46-16-18.29-24.17a34.23,34.23,0,0,1-.31-19.46c1-3.37.91-7.75,7.77-10.1l1.13-.75a9.23,9.23,0,0,1,3.55-2.69c5.24-2.54,15.25-2.64,22.24-.83s10.37,4.81,12.19,7.86a14.86,14.86,0,0,1,3.82,5.76c1.38,4,4.16,7.92,5.76,12a8.67,8.67,0,0,1,.63,5.93,13,13,0,0,1,0,5.59,5.78,5.78,0,0,1-.2,1.84,79.6,79.6,0,0,1-2.34,11.63c.12.24-.13.39-.4.61A53.82,53.82,0,0,1,686.59,273l-.05.16-.52,1a.74.74,0,0,0-.36.48,5.91,5.91,0,0,1-1.14,3.52c-.11.32-.6.54-1.08.76.52,1,0,1.86-2.37,2.12C677.83,281.25,674.38,279.66,672.79,278.79ZM372.25,261.18c-17.6-11-22.89-23.57-26.92-35.87-2.12-6.49-4.56-18,19.27-20.35,11.95-1.18,24.8.13,33.37,2.92,10.77,3.48,13.92,8.73,14.39,14.16.41,5.89-3,12.07-8,18-6,7.19-18.06,13.86-22.57,21.52a3,3,0,0,1-2.22,1A11.94,11.94,0,0,1,372.25,261.18Z" transform="translate(-92.58 -195.45)" fill="#33f"/></svg>